# Wavefront OBJ exported by MilkShape 3D

v -5.000000 0.000000 -6.000000
v 5.000000 0.000000 -6.000000
v 5.000000 0.000000 6.000000
v -5.000000 0.000000 6.000000
v 0.000000 6.000000 0.000000
v 0.000000 35.000000 -3.000000
v 0.000000 35.000000 3.000000
v 0.000000 61.000000 0.000000
v 0.000000 5.000000 0.000000
v 0.000000 35.000000 0.000000
v 0.000000 35.000000 -1.500000
v 2.000000 20.000000 -1.500000
v 2.000000 20.000000 0.000000
v -2.000000 48.000000 -1.500000
v -2.000000 48.000000 0.000000
v -2.000000 48.000000 1.500000
v 0.000000 35.000000 1.500000
v 2.000000 20.000000 1.500000
v 0.068853 35.199997 -3.000000
v 0.068853 35.199997 3.000000
v 0.068853 61.199997 0.000000
v 0.068853 5.199999 0.000000
v 0.068853 35.199997 0.000000
v 0.068853 35.199997 -1.500000
v 2.068853 20.199999 -1.500000
v 2.068853 20.199999 0.000000
v -1.931147 48.199997 -1.500000
v -1.931147 48.199997 0.000000
v -1.931147 48.199997 1.500000
v 0.068853 35.199997 1.500000
v 2.068853 20.199999 1.500000
# 31 vertices

vt 0.000000 1.000000
# 1 texture coordinates

vn 0.450699 0.790427 0.414844
vn 0.000000 1.000000 0.000000
vn -0.450699 0.790427 0.414844
vn 0.450699 0.790427 -0.414844
vn -0.450699 0.790427 -0.414844
vn -0.989850 -0.142118 0.000000
vn -0.999014 -0.044401 0.000000
vn -0.988372 0.152057 0.000000
vn -0.998688 -0.051215 0.000000
vn -0.991228 0.132164 0.000000
vn 0.999014 0.044401 0.000000
vn 0.989850 0.142118 0.000000
vn 0.998688 0.051215 0.000000
vn 0.988372 -0.152057 0.000000
vn 0.991228 -0.132164 0.000000
# 15 normals

g Triangles
s 1
f 3/1/1 5/1/2 4/1/3
f 2/1/4 5/1/2 3/1/1
f 5/1/2 2/1/4 1/1/5
f 5/1/2 1/1/5 4/1/3
f 10/1/6 11/1/6 13/1/7
f 8/1/8 14/1/9 15/1/9
f 7/1/6 16/1/9 17/1/6
f 7/1/6 17/1/6 18/1/7
f 9/1/10 13/1/7 12/1/7
f 6/1/6 12/1/7 11/1/6
f 11/1/6 12/1/7 13/1/7
f 10/1/6 15/1/9 11/1/6
f 6/1/6 11/1/6 14/1/9
f 14/1/9 11/1/6 15/1/9
f 10/1/6 17/1/6 15/1/9
f 8/1/8 15/1/9 16/1/9
f 16/1/9 15/1/9 17/1/6
f 9/1/10 18/1/7 13/1/7
f 10/1/6 13/1/7 17/1/6
f 17/1/6 13/1/7 18/1/7
# 20 triangles in group

g Duplicate01
f 26/1/11 24/1/12 23/1/12
f 28/1/13 27/1/13 21/1/14
f 30/1/12 29/1/13 20/1/12
f 31/1/11 30/1/12 20/1/12
f 25/1/11 26/1/11 22/1/15
f 24/1/12 25/1/11 19/1/12
f 26/1/11 25/1/11 24/1/12
f 24/1/12 28/1/13 23/1/12
f 27/1/13 24/1/12 19/1/12
f 28/1/13 24/1/12 27/1/13
f 28/1/13 30/1/12 23/1/12
f 29/1/13 28/1/13 21/1/14
f 30/1/12 28/1/13 29/1/13
f 26/1/11 31/1/11 22/1/15
f 30/1/12 26/1/11 23/1/12
f 31/1/11 26/1/11 30/1/12
# 16 triangles in group

# 36 triangles total

